<svg width="500" height="500" viewBox="0 0 500 500" preserveAspectRatio="xMinYMin meet" xmlns="http://www.w3.org/2000/svg" xmlns:xlink="http://www.w3.org/1999/xlink">
  <defs/>
  <g>
    <path stroke="none" fill="#eabc8e" d="M408.15 277.65 Q401.85 289.35 392.3 298.9 L389.1 301.5 Q379.55 308.6 368.3 312.45 L368.9 309.8 Q371.7 296.25 368 283.05 364.45 270.4 355.85 260.7 363.05 258.1 370 254.4 382.95 247.65 386.3 233.95 386.45 233 386.75 232.25 387.55 229.8 386.95 227.95 L386.75 227.15 Q386.45 225.95 385.25 225.65 L383.85 224.85 Q383.1 224.85 382.3 225.5 L382.15 225.65 381.55 225.35 Q371.55 221.65 366.15 212.1 363.7 207.45 367.55 204.1 373.25 199.15 379.1 203.95 382.6 207 387.25 207.15 388.45 207.15 389.1 206.55 389.25 206.4 389.4 206.4 391.4 206.1 391.25 203.95 391.25 201.95 390.75 199.95 388.45 187.6 395.85 177.15 401.1 169.6 408.15 163.9 414.45 158.85 421.4 162.1 L421.55 162.85 Q422 167.3 420 171.6 416.45 179.15 415.1 187.15 414.45 190.25 417.7 190.4 423.55 190.55 421.4 185.6 421.55 183.15 422.5 180.85 424.95 175.3 426.8 169.75 429.1 169 430.5 166.4 435.55 166.1 437.4 171 440.35 179.3 436.35 187.3 435.1 189.95 432.95 191.6 428.3 194.85 433.25 197.95 L435.7 197.8 Q440.95 193.15 443.25 186.7 444.95 182.25 444.95 177.95 449.25 176.1 453.4 178.55 L454.95 180.1 Q462.35 188.4 458.95 199.3 454.95 212.4 446.2 223.3 L444.65 224.85 442.35 227 441.7 227.65 Q436.35 234.25 428.5 237.5 L425.55 238.55 Q420 240.4 415.85 237.15 414.15 235.95 412.3 235.95 410.95 235.95 410.3 236.55 406 234.7 400.8 234.25 L399.1 234.7 Q396.3 235.5 396.45 238.1 L397.55 239.5 Q398.8 240.85 399.55 242.4 403.4 250.1 405.85 258.55 408 266.25 406.65 274.25 406 277.8 406.15 281.05 L408.15 277.65 M85 208.7 Q96.55 203.65 109 200.55 L115.15 199 129.45 196.1 130.7 195.95 130.85 195.95 Q130.7 195.95 130.7 196.1 130.7 197.15 131.15 198.1 L131.95 199.15 Q134.25 201.95 138.25 202.4 145.6 205.65 153.15 207.3 160.85 209.15 168.4 211.45 L197.65 220.25 Q228.25 229 259.65 233.15 L287.2 236.1 283.35 239.8 276.75 245.65 Q275.05 248.55 271.35 250.55 L264.75 253.8 265.05 253.95 Q263.05 255.05 261.2 256.1 249.35 263.05 236.1 267.2 223.2 271.05 209.8 272.7 L198.85 273.65 Q194.4 274.7 189.8 273.65 L188.55 273.5 186.1 273.65 Q186.25 273.65 186.4 273.8 L182.85 273.65 182.7 273.5 175.65 272.7 173.5 272.7 173.3 272.9 Q164.7 271.8 156.25 269.35 143.15 265.65 131.45 258.55 119.75 251.35 110.05 241.65 100.55 232.1 92.05 221.5 87.3 215.5 85 208.7 M181.15 203.15 L179.65 202.85 179.5 202.55 181.15 203.15 M150.1 222.4 L149.95 222.4 149.8 222.7 149.6 223.3 149.8 224.1 151.3 225.8 Q154.4 228.85 158.25 230.85 164.55 234.25 171.65 236.4 183.15 239.95 195.35 241.65 L197.2 241.95 202.85 242.25 Q229.35 243 255.35 240.25 260.9 239.65 259.35 235 259.2 234.1 258.25 234.1 L239.65 235.15 235.65 235.5 Q218.7 236.85 201.8 236.1 L196.85 235.65 Q187.5 234.1 178.4 231.65 165.45 227.95 153.15 223.5 L152.85 223.3 Q151.95 222.4 150.55 222.1 L150.55 222.25 Q150.4 222.25 150.1 222.4 M399.4 199.3 Q396.3 199.65 396.45 202.7 396.45 203.95 397.55 204.25 405.4 206.7 406.45 214.55 406.95 217.5 404.15 218.25 400.8 219.15 401.7 222.4 402.6 225.5 405.7 224.25 413.1 221.8 412.45 214.25 411.4 202.25 399.4 199.3 M69 370.9 L69.6 370 Q70.85 368.15 72.5 366.9 74.05 365.5 75.9 364.75 83 362 84.2 357.2 L85.45 355.5 Q87.9 350.9 87.45 345.05 85.6 323.5 95.6 304.75 102.85 310.45 112.25 312.6 L123.9 314.9 136.1 315.5 Q133 319.5 130.4 323.95 123.6 336.15 120.55 349.8 118.25 360.3 118.55 371.2 118.7 373.85 120.1 376 L120.85 376.75 Q122.4 378.9 125.75 379.7 130.25 383.55 131.15 389.55 132.1 395.2 128.4 400 123.45 406.3 115.9 405.4 L115.45 404.6 Q116.25 401.7 115.9 398.3 115.45 392.45 111.3 389.85 113.45 386.75 109 384.75 99.75 389.2 101.6 399.55 101.9 400.9 103 401.85 106.25 404.45 107.3 408 L107.75 409.25 Q106.85 410.3 107.15 412.9 96.7 418 86.85 412.45 84.7 411.25 83.45 409.05 77.9 400 81.45 389.4 82.2 387.35 83.45 385.7 86.55 380.9 81 379.7 80.2 379.7 79.3 380.3 76.85 382.45 75.9 385.55 73 394.75 74.85 404.6 73.6 404.15 72.5 404 L69.9 403.4 Q62.5 402.3 61.45 395.55 62.5 387.55 67.3 380.9 L70.85 375.7 Q73.3 371.85 69 370.9"/>
    <path stroke="none" fill="#000000" d="M69 370.9 Q73.3 371.85 70.85 375.7 L67.3 380.9 Q62.5 387.55 61.45 395.55 62.5 402.3 69.9 403.4 L72.5 404 Q73.6 404.15 74.85 404.6 73 394.75 75.9 385.55 76.85 382.45 79.3 380.3 80.2 379.7 81 379.7 86.55 380.9 83.45 385.7 82.2 387.35 81.45 389.4 77.9 400 83.45 409.05 84.7 411.25 86.85 412.45 96.7 418 107.15 412.9 106.85 410.3 107.75 409.25 L107.3 408 Q106.25 404.45 103 401.85 101.9 400.9 101.6 399.55 99.75 389.2 109 384.75 113.45 386.75 111.3 389.85 115.45 392.45 115.9 398.3 116.25 401.7 115.45 404.6 L115.9 405.4 Q123.45 406.3 128.4 400 132.1 395.2 131.15 389.55 130.25 383.55 125.75 379.7 122.4 378.9 120.85 376.75 L120.1 376 Q118.7 373.85 118.55 371.2 118.25 360.3 120.55 349.8 123.6 336.15 130.4 323.95 133 319.5 136.1 315.5 L123.9 314.9 112.25 312.6 Q102.85 310.45 95.6 304.75 92.2 301.95 89.45 298.6 L88.7 297.65 Q86.35 301.2 84.35 305.05 78.05 317.35 75.6 330.9 74.35 337.35 74.2 343.8 74.2 347.35 74.5 350.9 L74.5 351.05 74.5 352.45 74.5 352.9 Q74.7 353.5 74.35 354 L73.75 354.6 72.5 355.2 Q72.35 355.2 72.35 355.35 L68.05 359.35 Q57 368.15 53 381.55 51.45 386.6 53.45 391.2 L54.35 391.85 Q55.15 392 55.75 392.3 56.05 388.15 58.05 384.3 61.9 376.6 67.9 371.05 L68.5 370.75 68.7 370.75 Q68.85 370.75 69 370.9 M462.95 207.3 Q457.25 219.95 448.2 230.1 L446.95 231.35 445.7 232.85 Q436.65 243.5 422.95 245.2 L422.15 245.35 422.3 247.8 Q422 261.65 416.15 274.25 410.45 286.55 401.85 297.35 392.95 308.25 380.3 314.3 368.9 319.65 356.3 321.35 L353.7 321.65 Q356.75 324.3 359.55 327.65 366.45 336.15 369.25 346.15 370 348.75 369.55 351.05 L369.4 353.05 Q368.6 356.3 368.3 359.85 368.15 360.9 368.15 362 L367.85 362.15 Q365.4 372.45 360.45 382 354.15 394.15 345.05 404.3 338 412.45 330 419.7 341.2 421.1 352.3 423.25 L357.55 424.45 Q363.05 426 361.4 431.25 360.9 432.75 359.25 433.4 346.45 437.7 332.9 438.8 L316.75 439.55 Q303.2 439.7 289.65 438.95 L262.1 437.1 235.5 435.1 219.05 433.25 217.8 433.1 Q216.7 434.3 214.4 434.75 L207.5 436.45 Q194.4 440.15 180.7 441.7 147.95 445.4 114.85 446.45 93.6 447.25 72.5 446 L69.75 445.85 Q63.75 445.4 59.75 441.85 59.15 441.25 59.15 440.3 59.6 435.55 64.65 434 L65.6 433.55 Q69 431.7 72.5 430.3 L76.2 429.1 81.9 427.25 82.2 427.25 87.9 425.7 87.6 425.25 Q85.6 421.85 84.05 418.45 L83.9 418 Q79.45 415.4 77.15 411.25 L75.9 411.05 72.5 410.6 70.85 410.3 Q61.15 408.75 56.5 400.45 L56.2 399.55 56.05 398.75 Q54.05 398.9 51.9 397.7 44.05 393.05 46.2 383.85 L47 380.6 Q50.35 367.05 60.65 357.2 L63.75 354.6 Q63.3 353.85 63.15 353.05 62.05 341.8 65.9 331.65 52.65 326.75 44.8 315.2 36.8 303.05 40.05 289.2 40.05 288.9 40.2 288.75 40.35 283.95 41.75 279.5 46.8 265.2 57.75 254.55 L62.5 250.1 Q67.3 245.8 72.5 242.55 82.55 236.4 94.4 234.1 87 225.15 81.3 215.3 76.35 206.55 77.3 197.3 75 197.6 74.05 194.4 73 191 72.5 187.6 72.05 184.25 72.05 180.85 72.05 176.55 72.5 172.4 73.6 162.85 77 153.9 82.05 141.15 90.7 130.35 99.45 119.9 110.4 111.6 113 109.6 115.9 107.75 115.15 107.15 114.7 106.2 113.6 103.6 113.9 100.65 115 91.6 124.55 90.5 131.75 90.8 135.15 96.2 146.4 90.65 158.85 87.3 171.3 84.05 184.1 82.95 L186.4 82.8 Q200.1 82.35 213.65 83.6 227.5 84.8 240.55 88.5 253.65 92.2 265.65 98.65 276.1 104.35 282.9 114.05 L283.5 115.15 291.2 114.7 Q304.45 114.2 317.5 115.3 331.35 116.5 344.75 119.45 353.7 121.3 362 124.85 369.25 128.05 373.55 134.35 374.6 136.05 375.1 138.05 377.1 147.6 370.6 155.45 362.6 165.15 350.15 168.4 342 170.55 334 171.9 323.7 173.6 313.35 172.1 312.9 172.1 312.75 171.9 315.5 183 313.65 194.7 311.5 208.1 305.35 220.4 299.2 232.85 289.05 242.4 283.2 248.1 276.9 252.85 L279.2 254.4 Q284.6 256.55 290.45 257.5 303.05 259.5 316 260.25 329.5 261.05 342.9 258.1 L344 257.95 343.85 257.8 351.05 255.8 351.2 255.95 Q360 253.05 368.15 248.25 378.45 242.25 380.75 231.65 379.55 231.5 378.45 230.85 367.25 225.8 361.05 214.85 358.3 209.95 360 204.7 361.7 199.15 367.25 196.55 369.25 195.6 370.9 195.3 378.6 194.85 384.15 199.45 383.1 191.3 386.15 183.3 389.55 174.55 395.7 167 404.15 156.85 416.8 154.25 424.5 154.4 427.25 160.85 428.5 160.25 429.7 160.05 439.7 159.75 443.25 169.15 L444.2 171.6 Q445.85 170.85 447.7 170.7 463.25 173 465.55 188.25 466.95 198.25 462.95 207.3 M410.3 236.55 Q410.95 235.95 412.3 235.95 414.15 235.95 415.85 237.15 420 240.4 425.55 238.55 L428.5 237.5 Q436.35 234.25 441.7 227.65 L442.35 227 444.65 224.85 446.2 223.3 Q454.95 212.4 458.95 199.3 462.35 188.4 454.95 180.1 L453.4 178.55 Q449.25 176.1 444.95 177.95 444.95 182.25 443.25 186.7 440.95 193.15 435.7 197.8 L433.25 197.95 Q428.3 194.85 432.95 191.6 435.1 189.95 436.35 187.3 440.35 179.3 437.4 171 435.55 166.1 430.5 166.4 429.1 169 426.8 169.75 424.95 175.3 422.5 180.85 421.55 183.15 421.4 185.6 423.55 190.55 417.7 190.4 414.45 190.25 415.1 187.15 416.45 179.15 420 171.6 422 167.3 421.55 162.85 L421.4 162.1 Q414.45 158.85 408.15 163.9 401.1 169.6 395.85 177.15 388.45 187.6 390.75 199.95 391.25 201.95 391.25 203.95 391.4 206.1 389.4 206.4 389.25 206.4 389.1 206.55 388.45 207.15 387.25 207.15 382.6 207 379.1 203.95 373.25 199.15 367.55 204.1 363.7 207.45 366.15 212.1 371.55 221.65 381.55 225.35 L382.15 225.65 382.3 225.5 Q383.1 224.85 383.85 224.85 L385.25 225.65 Q386.45 225.95 386.75 227.15 L386.95 227.95 Q387.55 229.8 386.75 232.25 386.45 233 386.3 233.95 382.95 247.65 370 254.4 363.05 258.1 355.85 260.7 364.45 270.4 368 283.05 371.7 296.25 368.9 309.8 L368.3 312.45 Q379.55 308.6 389.1 301.5 L392.3 298.9 Q401.85 289.35 408.15 277.65 L408.3 277.05 Q414.65 264.7 415.7 251.05 415.85 248.55 415.4 246.1 L415.25 244.25 411.7 242.25 Q410 241 409.7 239 409.4 237.15 410.3 236.55 M121 104.35 Q125.3 101.45 130.1 99 L129.95 98.8 129.45 98.2 Q128.4 98.05 127.45 97.3 L127.15 97.15 Q120.4 95.75 119.9 101.9 L119.9 102.65 121 104.35 M78.5 184.7 L79.15 190.85 Q79.6 190.55 80.2 190.4 L80.85 190.25 81.45 189.6 Q92.55 181.95 104.4 175.15 116.4 168.25 128.7 161.9 L139.95 156.05 Q152.1 149.75 164.7 144.55 177 139.45 189.65 135 202.55 130.35 215.8 127 229.2 123.6 242.75 120.5 256.1 117.6 269.8 116.2 L276.9 115.6 Q273.65 111.6 269.35 108.65 258.1 100.85 245.05 96.65 232.25 92.35 218.9 90.05 L209.35 89.15 Q195.65 89.15 181.95 89.6 173.5 89.75 165.15 91.75 152.1 94.8 139.75 100.5 L134.25 103.45 Q125 108.35 116.55 114.35 105.3 122.5 96.55 133 87.6 143.6 82.7 156.55 77.75 169.45 78.35 183.3 78.35 184.1 78.5 184.7 M72.5 249.8 Q65.75 254.85 59.9 261.05 52.5 269.05 48.5 279.05 L47.15 283.05 Q49.45 284.9 47.45 288.4 43.9 294.25 45.45 300.9 48.35 314.6 60.35 322.6 64.2 325.05 68.5 325.8 69.3 324.45 70.85 323.95 71.6 320.9 72.5 317.95 L74.35 312.9 Q77.9 303.95 83 295.8 L91.6 283.35 Q95.6 278.25 100.05 273.8 107.15 267.05 115.45 261.95 118.25 260.4 121.3 259.35 117.75 256.85 114.55 254.25 107.75 248.7 101.9 242.55 100.2 242.25 98.55 240.55 L97.75 239.95 Q84.05 241.2 72.85 249.5 L72.5 249.8 M178.55 145.75 Q165.95 150.85 153.6 156.4 141 162.1 128.85 168.55 L112.85 177.45 Q122.1 174.1 131.6 171.45 144.85 167.75 158.25 165.75 171.8 163.6 185.5 162.55 L209.05 161.3 227.8 160.55 Q241.05 160.7 254.4 161.3 L281.5 162.7 303.65 164.4 303.65 164.25 Q306.45 165.15 309.2 165.15 L315.5 165.45 321.05 165.9 Q322.45 166.1 323.05 166.55 L327.5 166.25 Q341.2 165 354.15 160.4 365.7 156.25 368.9 145 371.1 137.3 364 133.15 352.15 126.35 338.6 124.05 329.05 122.35 319.35 121.45 L309.85 120.85 Q297.05 120.35 284.3 121.3 270.75 122.2 257.35 124.2 243.95 126.05 230.75 129.3 217.5 132.35 204.55 136.55 191.35 140.7 178.55 145.75 M287.2 236.1 L292.9 229.5 298 221.8 300 217.95 Q306.15 205.45 307.85 191.8 L308.3 184.85 307.85 178.55 307.65 178.25 306.9 173.6 306.15 170.85 294.45 170.1 268.45 167.9 242.4 166.7 Q230.25 166.1 218.25 166.85 L204.25 167.45 177.95 169.3 176.7 169.45 Q163.8 171 151 173.45 137.45 175.95 124.25 180.1 111.3 184.1 98.85 189.6 L98.2 189.95 Q90.55 193.3 82.7 195.95 L82.7 196.7 Q83 202.85 85 208.7 87.3 215.5 92.05 221.5 100.55 232.1 110.05 241.65 119.75 251.35 131.45 258.55 143.15 265.65 156.25 269.35 164.7 271.8 173.3 272.9 L173.5 272.9 173.8 272.9 173.5 272.7 175.65 272.7 182.7 273.5 182.85 273.65 186.4 273.8 Q186.25 273.65 186.1 273.65 L188.55 273.5 189.8 273.65 Q194.4 274.7 198.85 273.65 L209.8 272.7 Q223.2 271.05 236.1 267.2 249.35 263.05 261.2 256.1 263.05 255.05 265.05 253.95 L264.75 253.8 271.35 250.55 Q275.05 248.55 276.75 245.65 L283.35 239.8 287.2 236.1 M181.15 203.15 L181 202.25 180.85 201.95 Q180.25 197.95 181.8 194.1 L182.1 193.45 182.7 192.1 183 191.6 Q183.15 191.15 183.5 190.85 185.35 187.8 188.25 186.1 190.4 184.7 193 183.95 L195.2 184.1 Q196.85 184.4 198.25 185.15 201.2 187 201.5 191.8 L201.5 192.4 201.5 193.6 201.2 194.7 201 195.15 201 195.45 200.4 200.55 Q200.25 200.55 200.25 200.7 199.2 203.65 196.85 206.25 L196.1 207 192.1 209.45 189.95 210.1 Q185 211.15 182.55 206.7 L182.25 205.95 181.8 204.85 181.5 204.1 181.35 203.8 181.35 203.45 181.15 203.15 M194.7 190.25 L193.5 190.1 193.2 190.1 Q188.1 193.15 187.35 197.6 L187.65 197.95 Q191 198.1 193.95 196.7 194.85 194.4 195.2 192.1 195.35 191.15 194.7 190.25 M150.1 222.4 Q150.4 222.25 150.55 222.25 L150.55 222.1 Q151.95 222.4 152.85 223.3 L153.15 223.5 Q165.45 227.95 178.4 231.65 187.5 234.1 196.85 235.65 L201.8 236.1 Q218.7 236.85 235.65 235.5 L239.65 235.15 258.25 234.1 Q259.2 234.1 259.35 235 260.9 239.65 255.35 240.25 229.35 243 202.85 242.25 L197.2 241.95 195.35 241.65 Q183.15 239.95 171.65 236.4 164.55 234.25 158.25 230.85 154.4 228.85 151.3 225.8 L149.8 224.1 149.6 223.3 149.8 222.7 149.95 222.4 150.1 222.4 M245.05 176.1 Q250.75 177.45 254.25 181.75 256.25 184.1 257.5 187.45 259.65 192.85 259.2 198.7 258.6 205.45 252.6 208.7 L249.95 208.85 Q247.5 207.8 245.65 205.8 241.35 200.85 239.5 194.7 237.05 188.55 238.1 182.1 L238.25 182.1 Q238.25 181 238.55 179.95 L238.75 179.45 Q239.05 178.4 239.8 177.6 240.25 176.7 241.2 176.4 242.1 175.75 243.35 175.6 L244.25 175.75 244.6 175.95 244.75 175.95 245.05 176.1 M244.25 182.25 Q243.65 186.85 244.75 191.15 L245.65 191.3 Q248.4 192.4 250.25 190.7 250.25 189.3 250.75 188.25 248.9 185.15 245.8 182.7 245.2 182.1 244.25 182.25 M360.9 341.5 Q358.3 336.15 354.15 331.35 L353.4 330.45 Q353.4 328.3 351.2 325.8 L342.9 316.3 Q338.9 311.8 334 309.05 L328.6 303.95 Q318.3 295.05 308.3 285.65 298.45 276.1 287.05 268.4 281.05 264.4 275.5 259.65 L270.6 257.5 267.95 259.2 Q256.45 266.7 243.2 271.2 230.25 275.65 216.7 277.95 L199.95 279.95 203.35 284.25 Q210.25 293.5 209.65 304.1 L209.2 308.45 208.7 310.1 Q207.95 312.9 206.4 315.2 198.85 326.9 185.95 332.75 173.65 338.3 160.25 340.9 146.55 343.65 133 341.5 L129.6 340.6 Q125.6 351.85 124.85 363.7 L124.85 365.2 Q136.1 370.45 148.85 371.5 L175.3 373.5 199.2 374.45 242.1 374.6 269.35 373.7 292.9 371.2 319.7 367.2 Q333.35 365.05 346.6 361.35 L362.75 357.2 363.25 352.15 Q362.9 350.9 363.05 349.2 363.25 348.6 363.05 347.8 L363.05 347.5 360.9 341.5 M399.4 199.3 Q411.4 202.25 412.45 214.25 413.1 221.8 405.7 224.25 402.6 225.5 401.7 222.4 400.8 219.15 404.15 218.25 406.95 217.5 406.45 214.55 405.4 206.7 397.55 204.25 396.45 203.95 396.45 202.7 396.3 199.65 399.4 199.3 M344.45 263.95 Q330.9 267.05 317.2 266.25 303.65 265.65 290.45 263.2 L292.6 264.7 Q303.5 272.9 313.35 282.25 318.45 287.2 323.7 291.8 333.85 300.9 343.7 310.45 L347.7 314.1 349.2 315.5 349.55 315.8 360.6 314.6 Q360.75 313.8 361.05 313.2 362.15 311.65 362.6 309.8 365.85 296.25 361.55 283.05 357.7 271.5 349.4 262.7 L344.45 263.95 M360.45 366.75 L361.4 363.85 358.3 364.6 343.05 368.45 Q330 371.85 316.6 373.85 L290.45 377.35 268.1 379.85 258.75 380.45 Q250.4 380.9 242.1 380.75 L239.5 380.75 201.35 380.6 195 380.45 175.3 379.55 169.3 379.05 148.85 377.55 Q136.4 376.6 125.3 371.85 L125.9 373.05 Q135.6 377.55 137 389.4 138.4 402.75 126.55 409.7 120.4 413.25 114.4 410.9 L113.6 412.45 Q113.75 416.45 109.75 418.45 101.3 422.6 93 421.25 L94.05 423.85 97.45 422.9 Q100.05 422.9 101.15 424 L125.45 422.75 148.25 421.85 161.15 420.9 Q171 420.45 180.7 420.9 L208.25 422 213.65 422.15 215.2 415.55 Q215.8 413.85 215.95 411.85 L215.95 411.7 Q216.1 410.45 216.4 409.4 L218.7 396 219.05 394.6 Q209.65 394.45 200.55 394.75 199.35 394.75 198.85 393.7 197.35 390 201.35 389.55 L208.4 388.6 211.05 388.3 Q224.7 388 238.1 388.9 244.6 389.2 250.4 391.2 251.2 391.4 251.2 392.3 251.65 396.6 247.2 396.15 L225.5 394.75 225.35 395.7 Q223.2 409.05 219.95 422.15 L219.95 422.3 243.95 422.75 247.5 422.45 273.95 420.75 277.2 420.6 318.6 420.3 319.35 420.3 320.9 420 321.05 419.85 324.9 416.15 336 405.4 Q341.05 400.3 345.2 394.75 353.55 383.85 358.75 371.2 L360.45 366.75 M321.7 433.4 L329.05 432.6 Q340.45 431.7 351.85 429.7 347.2 428.45 341.2 427.7 333.2 426.45 325.7 424.6 323.5 426.75 320.3 426.45 L318.75 426.45 Q297.2 426.6 275.5 427.1 L248.75 428.6 238.1 429.4 263.95 431.1 288.3 432.6 299.35 433.4 Q310.6 434.3 321.7 433.4 M209.65 429.55 Q212.7 428 215.95 428.3 L209.95 428.15 182.55 426.95 Q168.7 426.3 155 427.1 L130.85 428.3 105.6 429.7 Q101.6 429.85 97.75 429.55 84.85 432.15 72.5 436.95 70.2 437.7 68.2 439.1 L72.5 440 78.05 440.3 Q133.15 442 187.65 434.75 194.4 434 200.7 432.15 L208.4 430 209.65 429.55 M191.15 280.1 L188.1 280.1 Q190.25 283.65 191.8 287.8 197 301.95 185.8 312.45 179.95 317.8 172.55 320.1 159.45 324.1 145.8 323.05 142.4 322.9 139.6 321.2 135.15 327.35 132.1 334.45 141 338 151.15 336.45 L162.85 334.3 Q181.15 330.6 195.35 318.9 201.5 313.8 203.35 306.1 204.4 301.65 202.7 297.35 199 287.8 192.55 280.1 L191.15 280.1 M181.8 281.65 L180.4 279.8 176.7 279.5 166.1 278.1 163.95 277.65 Q150.25 275.05 137.75 269.05 132.85 266.7 128.4 263.95 115 266.9 105.6 277.05 L100.2 282.75 Q95.9 287.2 92.4 292.25 94.55 296.1 98.2 299.35 100.2 301.05 102.7 302.25 114.85 307.95 128.4 309.5 L141.6 308.9 Q146.4 303.65 152.4 299.35 157.15 295.8 162.7 294.6 167.5 296.1 164.1 299.65 163.3 300.6 162.1 301.2 152.4 305.8 145.15 314.1 L143.45 316.1 Q159.65 319.05 174.55 312.9 185.5 308.45 187.15 297.2 187.5 295.05 186.85 293.05 185.15 286.75 181.8 281.65 M110.05 400 Q110.05 397.05 107.6 395.55 107.45 396.15 107.45 396.75 107.45 397.55 107.75 398.3 L110.05 400"/>
    <path stroke="none" fill="#1b3a70" d="M121 104.35 L119.9 102.65 119.9 101.9 Q120.4 95.75 127.15 97.15 L127.45 97.3 Q128.4 98.05 129.45 98.2 L129.95 98.8 130.1 99 Q125.3 101.45 121 104.35 M178.55 145.75 Q191.35 140.7 204.55 136.55 217.5 132.35 230.75 129.3 243.95 126.05 257.35 124.2 270.75 122.2 284.3 121.3 297.05 120.35 309.85 120.85 L319.35 121.45 Q329.05 122.35 338.6 124.05 352.15 126.35 364 133.15 371.1 137.3 368.9 145 365.7 156.25 354.15 160.4 341.2 165 327.5 166.25 L323.05 166.55 Q322.45 166.1 321.05 165.9 L315.5 165.45 309.2 165.15 Q306.45 165.15 303.65 164.25 L303.65 164.4 281.5 162.7 254.4 161.3 Q241.05 160.7 227.8 160.55 L209.05 161.3 185.5 162.55 Q171.8 163.6 158.25 165.75 144.85 167.75 131.6 171.45 122.1 174.1 112.85 177.45 L128.85 168.55 Q141 162.1 153.6 156.4 165.95 150.85 178.55 145.75"/>
    <path stroke="none" fill="#3068c5" d="M134.25 103.45 L139.75 100.5 Q152.1 94.8 165.15 91.75 173.5 89.75 181.95 89.6 195.65 89.15 209.35 89.15 L218.9 90.05 Q232.25 92.35 245.05 96.65 258.1 100.85 269.35 108.65 273.65 111.6 276.9 115.6 L269.8 116.2 Q256.1 117.6 242.75 120.5 229.2 123.6 215.8 127 202.55 130.35 189.65 135 177 139.45 164.7 144.55 152.1 149.75 139.95 156.05 L128.7 161.9 Q116.4 168.25 104.4 175.15 92.55 181.95 81.45 189.6 L80.85 190.25 80.2 190.4 Q79.6 190.55 79.15 190.85 L78.5 184.7 91.15 176.55 99 172.1 Q115.45 163.75 129.6 153.3 L131 152.4 Q136.4 147.45 129.6 143.9 124.25 129.75 129 115.6 131.15 109.3 134.25 103.45"/>
    <path stroke="none" fill="#2b5aaa" d="M134.25 103.45 Q131.15 109.3 129 115.6 124.25 129.75 129.6 143.9 136.4 147.45 131 152.4 L129.6 153.3 Q115.45 163.75 99 172.1 L91.15 176.55 78.5 184.7 Q78.35 184.1 78.35 183.3 77.75 169.45 82.7 156.55 87.6 143.6 96.55 133 105.3 122.5 116.55 114.35 125 108.35 134.25 103.45"/>
    <path stroke="none" fill="#1b9a31" d="M72.5 249.8 L72.85 249.5 Q84.05 241.2 97.75 239.95 L98.55 240.55 Q100.2 242.25 101.9 242.55 107.75 248.7 114.55 254.25 117.75 256.85 121.3 259.35 118.25 260.4 115.45 261.95 107.15 267.05 100.05 273.8 95.6 278.25 91.6 283.35 L83 295.8 Q77.9 303.95 74.35 312.9 L72.5 317.95 Q71.6 320.9 70.85 323.95 69.3 324.45 68.5 325.8 64.2 325.05 60.35 322.6 48.35 314.6 45.45 300.9 43.9 294.25 47.45 288.4 49.45 284.9 47.15 283.05 L48.5 279.05 Q52.5 269.05 59.9 261.05 65.75 254.85 72.5 249.8 M191.15 280.1 L192.55 280.1 Q199 287.8 202.7 297.35 204.4 301.65 203.35 306.1 201.5 313.8 195.35 318.9 181.15 330.6 162.85 334.3 L151.15 336.45 Q141 338 132.1 334.45 135.15 327.35 139.6 321.2 142.4 322.9 145.8 323.05 159.45 324.1 172.55 320.1 179.95 317.8 185.8 312.45 197 301.95 191.8 287.8 190.25 283.65 188.1 280.1 L191.15 280.1"/>
    <path stroke="none" fill="#dc944e" d="M408.15 277.65 L406.15 281.05 Q406 277.8 406.65 274.25 408 266.25 405.85 258.55 403.4 250.1 399.55 242.4 398.8 240.85 397.55 239.5 L396.45 238.1 Q396.3 235.5 399.1 234.7 L400.8 234.25 Q406 234.7 410.3 236.55 409.4 237.15 409.7 239 410 241 411.7 242.25 L415.25 244.25 415.4 246.1 Q415.85 248.55 415.7 251.05 414.65 264.7 408.3 277.05 L408.15 277.65 M85 208.7 Q83 202.85 82.7 196.7 L82.7 195.95 Q90.55 193.3 98.2 189.95 L98.85 189.6 Q111.3 184.1 124.25 180.1 137.45 175.95 151 173.45 163.8 171 176.7 169.45 L177.95 169.3 204.25 167.45 218.25 166.85 Q230.25 166.1 242.4 166.7 L268.45 167.9 294.45 170.1 306.15 170.85 306.9 173.6 307.65 178.25 307.85 178.55 308.3 184.85 307.85 191.8 Q306.15 205.45 300 217.95 L298 221.8 292.9 229.5 287.2 236.1 259.65 233.15 Q228.25 229 197.65 220.25 L168.4 211.45 Q160.85 209.15 153.15 207.3 145.6 205.65 138.25 202.4 134.25 201.95 131.95 199.15 L131.15 198.1 Q130.7 197.15 130.7 196.1 130.7 195.95 130.85 195.95 L130.7 195.95 129.45 196.1 115.15 199 109 200.55 Q96.55 203.65 85 208.7 M181.15 203.15 L181.35 203.45 181.35 203.8 181.5 204.1 181.8 204.85 182.25 205.95 182.55 206.7 Q185 211.15 189.95 210.1 L192.1 209.45 196.1 207 196.85 206.25 Q199.2 203.65 200.25 200.7 200.25 200.55 200.4 200.55 L201 195.45 201 195.15 201.2 194.7 201.5 193.6 201.5 192.4 201.5 191.8 Q201.2 187 198.25 185.15 196.85 184.4 195.2 184.1 L193 183.95 Q190.4 184.7 188.25 186.1 185.35 187.8 183.5 190.85 183.15 191.15 183 191.6 L182.7 192.1 182.1 193.45 181.8 194.1 Q180.25 197.95 180.85 201.95 L181 202.25 181.15 203.15 179.5 202.55 179.65 202.85 181.15 203.15 M245.05 176.1 L244.75 175.95 244.6 175.95 244.25 175.75 243.35 175.6 Q242.1 175.75 241.2 176.4 240.25 176.7 239.8 177.6 239.05 178.4 238.75 179.45 L238.55 179.95 Q238.25 181 238.25 182.1 L238.1 182.1 Q237.05 188.55 239.5 194.7 241.35 200.85 245.65 205.8 247.5 207.8 249.95 208.85 L252.6 208.7 Q258.6 205.45 259.2 198.7 259.65 192.85 257.5 187.45 256.25 184.1 254.25 181.75 250.75 177.45 245.05 176.1 M69 370.9 Q68.85 370.75 68.7 370.75 L68.5 370.75 67.9 371.05 Q61.9 376.6 58.05 384.3 56.05 388.15 55.75 392.3 55.15 392 54.35 391.85 L53.45 391.2 Q51.45 386.6 53 381.55 57 368.15 68.05 359.35 L72.35 355.35 Q72.35 355.2 72.5 355.2 L73.75 354.6 74.35 354 Q74.7 353.5 74.5 352.9 L74.5 352.45 74.5 351.05 74.5 350.9 Q74.2 347.35 74.2 343.8 74.35 337.35 75.6 330.9 78.05 317.35 84.35 305.05 86.35 301.2 88.7 297.65 L89.45 298.6 Q92.2 301.95 95.6 304.75 85.6 323.5 87.45 345.05 87.9 350.9 85.45 355.5 L84.2 357.2 Q83 362 75.9 364.75 74.05 365.5 72.5 366.9 70.85 368.15 69.6 370 L69 370.9"/>
    <path stroke="none" fill="#ffffff" d="M194.7 190.25 Q195.35 191.15 195.2 192.1 194.85 194.4 193.95 196.7 191 198.1 187.65 197.95 L187.35 197.6 Q188.1 193.15 193.2 190.1 L193.5 190.1 194.7 190.25 M244.25 182.25 Q245.2 182.1 245.8 182.7 248.9 185.15 250.75 188.25 250.25 189.3 250.25 190.7 248.4 192.4 245.65 191.3 L244.75 191.15 Q243.65 186.85 244.25 182.25"/>
    <path stroke="none" fill="#a81734" d="M209.65 304.1 Q210.25 293.5 203.35 284.25 L199.95 279.95 216.7 277.95 Q230.25 275.65 243.2 271.2 256.45 266.7 267.95 259.2 L270.6 257.5 275.5 259.65 Q281.05 264.4 287.05 268.4 298.45 276.1 308.3 285.65 318.3 295.05 328.6 303.95 L334 309.05 Q338.9 311.8 342.9 316.3 L351.2 325.8 Q353.4 328.3 353.4 330.45 L354.15 331.35 Q358.3 336.15 360.9 341.5 L359.85 339.5 343.4 336.9 Q315.5 332.3 287.95 325.95 269.8 321.95 252.25 316.1 230.55 308.9 209.65 299.95 L209.65 304.1 M181.8 281.65 L178.25 279.65 176.7 279.5 180.4 279.8 181.8 281.65"/>
    <path stroke="none" fill="#83122f" d="M181.8 281.65 Q185.15 286.75 186.85 293.05 187.5 295.05 187.15 297.2 185.5 308.45 174.55 312.9 159.65 319.05 143.45 316.1 L145.15 314.1 Q152.4 305.8 162.1 301.2 163.3 300.6 164.1 299.65 167.5 296.1 162.7 294.6 157.15 295.8 152.4 299.35 146.4 303.65 141.6 308.9 L128.4 309.5 Q114.85 307.95 102.7 302.25 100.2 301.05 98.2 299.35 94.55 296.1 92.4 292.25 95.9 287.2 100.2 282.75 L105.6 277.05 Q115 266.9 128.4 263.95 132.85 266.7 137.75 269.05 150.25 275.05 163.95 277.65 L166.1 278.1 176.7 279.5 178.25 279.65 181.8 281.65 M209.65 304.1 L209.65 299.95 Q230.55 308.9 252.25 316.1 269.8 321.95 287.95 325.95 315.5 332.3 343.4 336.9 L359.85 339.5 360.9 341.5 363.05 347.5 363.05 347.8 Q363.25 348.6 363.05 349.2 362.9 350.9 363.25 352.15 L362.75 357.2 346.6 361.35 Q333.35 365.05 319.7 367.2 L292.9 371.2 269.35 373.7 242.1 374.6 199.2 374.45 175.3 373.5 148.85 371.5 Q136.1 370.45 124.85 365.2 L124.85 363.7 Q125.6 351.85 129.6 340.6 L133 341.5 Q146.55 343.65 160.25 340.9 173.65 338.3 185.95 332.75 198.85 326.9 206.4 315.2 207.95 312.9 208.7 310.1 L209.2 308.45 209.65 304.1 M344.45 263.95 L349.4 262.7 Q357.7 271.5 361.55 283.05 365.85 296.25 362.6 309.8 362.15 311.65 361.05 313.2 360.75 313.8 360.6 314.6 L349.55 315.8 349.2 315.5 347.7 314.1 343.7 310.45 Q333.85 300.9 323.7 291.8 318.45 287.2 313.35 282.25 303.5 272.9 292.6 264.7 L290.45 263.2 Q303.65 265.65 317.2 266.25 330.9 267.05 344.45 263.95"/>
    <path stroke="none" fill="#3838a0" d="M358.3 364.6 L360.45 366.75 358.75 371.2 Q353.55 383.85 345.2 394.75 341.05 400.3 336 405.4 L324.9 416.15 Q293.8 416.45 269.05 396.6 260.9 390 258.75 380.45 L268.1 379.85 290.45 377.35 316.6 373.85 Q330 371.85 343.05 368.45 L358.3 364.6 M195 380.45 Q200.7 382.6 205.95 386.45 207.2 387.35 209.05 387.85 L210.7 388.3 208.4 388.6 201.35 389.55 Q197.35 390 198.85 393.7 199.35 394.75 200.55 394.75 209.65 394.45 219.05 394.6 L218.7 396 216.4 409.4 215.8 409.55 215.95 411.7 215.95 411.85 Q215.8 413.85 215.2 415.55 L215.05 415.55 Q212.7 420.75 204.1 419.55 185 416.9 173.5 401.85 L166.1 391.2 Q162.85 386.45 166.4 381.85 167.65 380.15 169.3 379.05 L175.3 379.55 195 380.45"/>
    <path stroke="none" fill="#302d82" d="M195 380.45 L201.35 380.6 239.5 380.75 242.1 380.75 Q250.4 380.9 258.75 380.45 260.9 390 269.05 396.6 293.8 416.45 324.9 416.15 L321.05 419.85 320.9 420 319.35 420.3 318.6 420.3 277.2 420.6 273.95 420.75 247.5 422.45 243.95 422.75 219.95 422.3 219.95 422.15 Q223.2 409.05 225.35 395.7 L225.5 394.75 247.2 396.15 Q251.65 396.6 251.2 392.3 251.2 391.4 250.4 391.2 244.6 389.2 238.1 388.9 224.7 388 211.05 388.3 L208.4 388.6 210.7 388.3 209.05 387.85 Q207.2 387.35 205.95 386.45 200.7 382.6 195 380.45 M360.45 366.75 L358.3 364.6 361.4 363.85 360.45 366.75 M169.3 379.05 Q167.65 380.15 166.4 381.85 162.85 386.45 166.1 391.2 L173.5 401.85 Q185 416.9 204.1 419.55 212.7 420.75 215.05 415.55 L215.2 415.55 213.65 422.15 208.25 422 180.7 420.9 Q171 420.45 161.15 420.9 L148.25 421.85 125.45 422.75 101.15 424 Q100.05 422.9 97.45 422.9 L94.05 423.85 93 421.25 Q101.3 422.6 109.75 418.45 113.75 416.45 113.6 412.45 L114.4 410.9 Q120.4 413.25 126.55 409.7 138.4 402.75 137 389.4 135.6 377.55 125.9 373.05 L125.3 371.85 Q136.4 376.6 148.85 377.55 L169.3 379.05 M215.95 411.7 L215.8 409.55 216.4 409.4 Q216.1 410.45 215.95 411.7 M110.05 400 L107.75 398.3 Q107.45 397.55 107.45 396.75 107.45 396.15 107.6 395.55 110.05 397.05 110.05 400"/>
    <path stroke="none" fill="#3d3d3d" d="M321.7 433.4 Q310.6 434.3 299.35 433.4 L288.3 432.6 263.95 431.1 238.1 429.4 248.75 428.6 275.5 427.1 Q297.2 426.6 318.75 426.45 L320.3 426.45 Q323.5 426.75 325.7 424.6 333.2 426.45 341.2 427.7 347.2 428.45 351.85 429.7 340.45 431.7 329.05 432.6 L321.7 433.4 M209.65 429.55 L208.4 430 200.7 432.15 Q194.4 434 187.65 434.75 133.15 442 78.05 440.3 L72.5 440 68.2 439.1 Q70.2 437.7 72.5 436.95 84.85 432.15 97.75 429.55 101.6 429.85 105.6 429.7 L130.85 428.3 155 427.1 Q168.7 426.3 182.55 426.95 L209.95 428.15 215.95 428.3 Q212.7 428 209.65 429.55"/>
    <path stroke="none" fill="#e7b563" d="M173.5 272.9 L173.3 272.9 173.5 272.7 173.5 272.9"/>
  </g>
</svg>