<?xml version="1.0" encoding="UTF-8" standalone="no"?>
<!DOCTYPE svg PUBLIC "-//W3C//DTD SVG 1.1//EN" "http://www.w3.org/Graphics/SVG/1.1/DTD/svg11.dtd">
<svg width="100%" height="100%" viewBox="0 0 1920 1080" version="1.1" xmlns="http://www.w3.org/2000/svg" xmlns:xlink="http://www.w3.org/1999/xlink" xml:space="preserve" xmlns:serif="http://www.serif.com/" style="fill-rule:evenodd;clip-rule:evenodd;stroke-linecap:round;stroke-linejoin:round;stroke-miterlimit:1.5;">
    <g transform="matrix(1.30548,0,0,1.30548,154.262,37.2226)">
        <circle cx="666.454" cy="414.23" r="41.833" style="fill:rgb(88,139,160);"/>
    </g>
    <g transform="matrix(1.00767,0,0,1.00767,373.686,127.56)">
        <circle cx="788.467" cy="172.707" r="27.291" style="fill:rgb(88,139,160);"/>
    </g>
    <g transform="matrix(1.30548,0,0,1.30548,291.328,30.9923)">
        <circle cx="666.454" cy="414.23" r="41.833" style="fill:rgb(88,139,160);"/>
    </g>
    <g transform="matrix(1.30548,0,0,1.30548,-115.588,133.792)">
        <circle cx="666.454" cy="414.23" r="41.833" style="fill:rgb(88,139,160);"/>
    </g>
    <g transform="matrix(1.30548,0,0,1.30548,15.2481,69.9317)">
        <circle cx="666.454" cy="414.23" r="41.833" style="fill:rgb(88,139,160);"/>
    </g>
    <g transform="matrix(0.372692,1.52747,-1.65279,0.412174,1230.56,-423.87)">
        <path d="M569.288,141.888C476.961,132.204 395.227,204.081 390.033,296.557C384.112,401.978 475.894,472.385 567.486,460.229C520.319,407.995 511.109,229.068 569.288,141.888Z" style="fill:rgb(88,139,160);"/>
    </g>
    <g transform="matrix(1.22231,0,0,1.22231,192.384,78.388)">
        <circle cx="534.788" cy="284.805" r="43.167" style="fill:white;"/>
    </g>
    <g transform="matrix(1.21103,0,0,1.21103,333.047,50.7399)">
        <circle cx="534.788" cy="284.805" r="43.167" style="fill:white;"/>
    </g>
    <g transform="matrix(0.507415,0,0,0.507415,697.65,255.027)">
        <circle cx="534.788" cy="284.805" r="43.167" style="fill:rgb(88,139,160);"/>
    </g>
    <g transform="matrix(0.507415,0,0,0.507415,583.558,277.612)">
        <circle cx="534.788" cy="284.805" r="43.167" style="fill:rgb(88,139,160);"/>
    </g>
    <g transform="matrix(1.18504,0,8.63937e-32,1.18504,230.648,92.7435)">
        <circle cx="791.165" cy="176.316" r="20.471" style="fill:rgb(235,235,235);"/>
    </g>
    <g transform="matrix(0.524389,0,0,0.524389,1150.9,309.679)">
        <g transform="matrix(44.554,0,0,44.554,0,0)">
            <path d="M0.072,-0.716L0.336,-0.716C0.396,-0.716 0.441,-0.711 0.473,-0.702C0.515,-0.69 0.551,-0.668 0.581,-0.636C0.611,-0.605 0.633,-0.566 0.649,-0.52C0.665,-0.475 0.672,-0.418 0.672,-0.351C0.672,-0.292 0.665,-0.241 0.65,-0.199C0.632,-0.147 0.607,-0.104 0.574,-0.072C0.549,-0.048 0.515,-0.029 0.472,-0.015C0.44,-0.005 0.398,0 0.344,0L0.072,0L0.072,-0.716ZM0.217,-0.595L0.217,-0.121L0.325,-0.121C0.365,-0.121 0.394,-0.123 0.412,-0.127C0.436,-0.133 0.455,-0.143 0.47,-0.157C0.486,-0.171 0.499,-0.194 0.508,-0.226C0.518,-0.258 0.523,-0.302 0.523,-0.357C0.523,-0.413 0.518,-0.455 0.508,-0.485C0.499,-0.514 0.485,-0.538 0.467,-0.554C0.45,-0.571 0.427,-0.582 0.4,-0.588C0.38,-0.592 0.341,-0.595 0.282,-0.595L0.217,-0.595Z" style="fill:rgb(88,139,160);fill-rule:nonzero;"/>
        </g>
        <g transform="matrix(44.554,0,0,44.554,32.1755,0)">
            <path d="M0.073,0L0.073,-0.716L0.377,-0.716C0.454,-0.716 0.51,-0.709 0.544,-0.697C0.579,-0.684 0.607,-0.661 0.627,-0.628C0.648,-0.595 0.659,-0.557 0.659,-0.515C0.659,-0.461 0.643,-0.417 0.611,-0.382C0.58,-0.347 0.533,-0.325 0.47,-0.316C0.501,-0.298 0.527,-0.278 0.547,-0.256C0.567,-0.234 0.595,-0.195 0.629,-0.14L0.717,0L0.544,0L0.439,-0.156C0.402,-0.211 0.377,-0.247 0.363,-0.261C0.35,-0.275 0.335,-0.285 0.32,-0.291C0.305,-0.296 0.28,-0.299 0.247,-0.299L0.218,-0.299L0.218,0L0.073,0ZM0.218,-0.413L0.325,-0.413C0.394,-0.413 0.437,-0.416 0.455,-0.422C0.472,-0.428 0.485,-0.438 0.495,-0.452C0.505,-0.466 0.51,-0.484 0.51,-0.506C0.51,-0.53 0.503,-0.549 0.49,-0.564C0.478,-0.579 0.459,-0.588 0.436,-0.592C0.424,-0.594 0.389,-0.595 0.331,-0.595L0.218,-0.595L0.218,-0.413Z" style="fill:rgb(88,139,160);fill-rule:nonzero;"/>
        </g>
    </g>
    <g transform="matrix(1.16818,0,0,1.16818,233.011,93.0241)">
        <path d="M572.611,171.151L551.795,173.78" style="fill:none;stroke:rgb(88,139,160);stroke-width:0.86px;"/>
        <path d="M551.795,173.78C549.58,146.123 545.149,90.81 623.882,56.556C626.596,55.376 630.383,57.36 632.428,58.967C634.473,60.573 635.824,63.75 636.153,66.197C636.481,68.644 636.507,72.209 634.4,73.647C616.798,85.661 563.822,100.439 572.611,171.151" style="fill:rgb(88,139,160);stroke:rgb(88,139,160);stroke-width:0.86px;"/>
    </g>
    <g transform="matrix(1.16818,0,0,1.16818,233.011,93.0241)">
        <path d="M429.863,712.705C382.877,641.424 446.413,559.924 520.25,579.434C520.421,579.479 520.033,579.677 520.25,579.434L519.914,538.039L604.189,509.155L631.374,641.004L429.863,712.705Z" style="fill:rgb(88,139,160);stroke:rgb(88,139,160);stroke-width:0.86px;"/>
    </g>
    <g transform="matrix(1.16818,0,0,1.16818,233.011,93.0241)">
        <path d="M627.778,526.772L676.992,650.56C676.992,650.56 871.489,593.007 871.486,592.749C870.316,510.023 782.525,466.981 732.654,536.013C732.085,536.799 712.667,502.917 712.667,502.917L627.778,526.772Z" style="fill:rgb(88,139,160);stroke:rgb(88,139,160);stroke-width:0.86px;"/>
    </g>
</svg>
